<svg xmlns="http://www.w3.org/2000/svg" enable-background="new 0 0 1035 690" viewBox="0 0 1035 690"><rect width="1035" height="690" fill="#fea918"/><path fill="#fff" d="M454.701 221.742v18.962h-17.545v-18.962h-51.038v-16.835l44.481-90.38h19.494l-44.305 90.38h31.367v-29.418h17.545v29.418h13.468v16.835H454.701zM521.51 241.767c-20.026 0-36.33-13.646-36.33-36.151v-56.001c0-22.506 16.304-36.152 36.33-36.152 20.025 0 36.506 13.646 36.506 36.152v56.001C558.016 228.121 541.535 241.767 521.51 241.767zM539.94 150.146c0-12.228-6.912-20.557-18.43-20.557-11.52 0-18.254 8.329-18.254 20.557v54.936c0 12.228 6.734 20.557 18.254 20.557 11.518 0 18.43-8.329 18.43-20.557V150.146zM614.898 241.944c-20.203 0-37.924-10.811-38.633-35.443h18.076c.709 13.468 10.102 19.139 20.557 19.139 11.697 0 20.557-7.62 20.557-20.911 0-12.76-6.91-20.734-21.088-20.734h-3.014v-15.772h3.014c13.113 0 19.139-7.621 19.139-19.14 0-12.759-8.328-19.494-18.607-19.494-10.986 0-18.076 6.912-18.961 18.076h-18.076c1.063-21.443 16.834-34.38 37.037-34.38 21.443 0 36.684 14.354 36.684 35.266 0 13.468-6.025 22.152-15.771 26.936 10.811 4.785 17.721 14.177 17.721 29.772C653.531 229.539 635.988 241.944 614.898 241.944zM385.732 258.994v17.364h-2.049v-17.364h-5.555v-1.834h13.158v1.834H385.732zM403.016 276.357v-8.196c0-2.319-1.24-3.505-3.235-3.505-1.995 0-3.316 1.213-3.316 3.505v8.196h-1.941V257.16h1.941v7.388c.971-1.105 2.237-1.618 3.721-1.618 2.992 0 4.772 1.914 4.772 4.907v8.52H403.016zM409.568 259.317v-2.184h2.184v2.184H409.568zM409.676 276.357v-13.266h1.941v13.266H409.676zM420.677 276.519c-2.237 0-3.99-.512-5.446-1.914l1.294-1.295c1.052 1.105 2.481 1.537 4.126 1.537 2.184 0 3.532-.782 3.532-2.346 0-1.16-.675-1.807-2.211-1.942l-2.185-.188c-2.588-.216-3.963-1.375-3.963-3.56 0-2.426 2.049-3.882 4.88-3.882 1.888 0 3.586.458 4.772 1.429l-1.268 1.267c-.943-.728-2.157-1.051-3.532-1.051-1.941 0-2.966.835-2.966 2.184 0 1.132.647 1.807 2.319 1.941l2.13.189c2.318.216 3.909 1.105 3.909 3.586C426.07 275.036 423.886 276.519 420.677 276.519zM436.478 259.317v-2.184h2.185v2.184H436.478zM436.586 276.357v-13.266h1.941v13.266H436.586zM447.586 276.519c-2.237 0-3.99-.512-5.446-1.914l1.294-1.295c1.052 1.105 2.481 1.537 4.126 1.537 2.184 0 3.532-.782 3.532-2.346 0-1.16-.675-1.807-2.211-1.942l-2.185-.188c-2.588-.216-3.963-1.375-3.963-3.56 0-2.426 2.049-3.882 4.88-3.882 1.888 0 3.586.458 4.772 1.429l-1.268 1.267c-.943-.728-2.157-1.051-3.532-1.051-1.941 0-2.966.835-2.966 2.184 0 1.132.648 1.807 2.319 1.941l2.13.189c2.318.216 3.909 1.105 3.909 3.586C452.979 275.036 450.795 276.519 447.586 276.519zM471.018 276.357v-1.267c-1.079 1.079-2.049 1.429-3.829 1.429-1.833 0-2.911-.35-3.747-1.213-.647-.647-.998-1.645-.998-2.696 0-2.318 1.618-3.828 4.584-3.828h3.99v-1.268c0-1.941-.971-2.912-3.398-2.912-1.698 0-2.561.405-3.343 1.51l-1.321-1.213c1.186-1.537 2.534-1.968 4.691-1.968 3.559 0 5.312 1.537 5.312 4.422v9.005H471.018zM471.018 270.237h-3.721c-1.995 0-2.966.809-2.966 2.346 0 1.537.943 2.265 3.047 2.265 1.132 0 2.13-.081 2.966-.89.458-.432.674-1.186.674-2.292V270.237zM486.765 264.656v11.702h-1.94v-11.702h-1.699v-1.483h1.699v-2.507c0-1.968 1.105-3.559 3.37-3.559h1.401v1.672h-1.051c-1.24 0-1.78.728-1.78 1.941v2.454h2.831v1.483H486.765zM500.867 275.009c-.916.917-2.184 1.51-3.802 1.51-1.617 0-2.885-.593-3.801-1.51-1.349-1.375-1.618-3.235-1.618-5.285 0-2.049.27-3.909 1.618-5.285.916-.917 2.184-1.51 3.801-1.51 1.618 0 2.886.593 3.802 1.51 1.349 1.375 1.618 3.236 1.618 5.285C502.485 271.774 502.215 273.634 500.867 275.009zM499.492 265.626c-.62-.62-1.482-.971-2.427-.971-.943 0-1.779.35-2.399.971-.971.971-1.078 2.615-1.078 4.098 0 1.483.107 3.128 1.078 4.099.62.62 1.456.97 2.399.97.944 0 1.807-.35 2.427-.97.971-.971 1.052-2.616 1.052-4.099C500.543 268.242 500.462 266.597 499.492 265.626zM514.052 265.626c-.727-.728-1.267-.971-2.291-.971-1.941 0-3.182 1.537-3.182 3.559v8.143h-1.941v-13.266h1.941v1.618c.728-1.105 2.184-1.78 3.721-1.78 1.267 0 2.237.296 3.182 1.24L514.052 265.626zM526.914 275.36c-.701.701-1.887 1.159-3.236 1.159-1.455 0-2.668-.35-3.746-1.752v1.591h-1.942V257.16h1.942v7.469c1.078-1.375 2.291-1.699 3.746-1.699 1.35 0 2.535.458 3.236 1.16 1.348 1.348 1.617 3.559 1.617 5.635S528.262 274.012 526.914 275.36zM523.273 264.656c-2.885 0-3.342 2.48-3.342 5.069 0 2.588.457 5.069 3.342 5.069 2.885 0 3.316-2.48 3.316-5.069C526.59 267.136 526.158 264.656 523.273 264.656zM532.578 259.317v-2.184h2.184v2.184H532.578zM532.685 276.357v-13.266h1.942v13.266H532.685zM547.434 276.357v-1.591c-1.078 1.402-2.318 1.752-3.773 1.752-1.35 0-2.535-.459-3.236-1.159-1.348-1.348-1.617-3.559-1.617-5.635s.27-4.287 1.617-5.635c.701-.701 1.887-1.16 3.236-1.16 1.455 0 2.668.324 3.746 1.699v-7.469h1.941v19.197H547.434zM544.09 264.656c-2.885 0-3.342 2.48-3.342 5.069 0 2.588.457 5.069 3.342 5.069 2.887 0 3.317-2.48 3.317-5.069C547.406 267.136 546.977 264.656 544.09 264.656zM562.129 276.357v-1.591c-1.078 1.402-2.318 1.752-3.773 1.752-1.35 0-2.535-.459-3.236-1.159-1.348-1.348-1.617-3.559-1.617-5.635s.269-4.287 1.617-5.635c.701-.701 1.887-1.16 3.236-1.16 1.455 0 2.668.324 3.746 1.699v-7.469h1.941v19.197H562.129zM558.785 264.656c-2.885 0-3.342 2.48-3.342 5.069 0 2.588.457 5.069 3.342 5.069 2.887 0 3.316-2.48 3.316-5.069C562.102 267.136 561.672 264.656 558.785 264.656zM570.111 270.237c0 2.912 1.375 4.584 3.91 4.584 1.535 0 2.426-.458 3.477-1.51l1.322 1.16c-1.348 1.348-2.588 2.049-4.854 2.049-3.506 0-5.797-2.103-5.797-6.794 0-4.287 2.076-6.794 5.445-6.794 3.426 0 5.447 2.48 5.447 6.417v.89H570.111zM576.717 266.57c-.512-1.213-1.699-1.995-3.102-1.995-1.4 0-2.588.782-3.1 1.995-.297.728-.352 1.132-.404 2.211h7.01C577.066 267.703 577.014 267.298 576.717 266.57zM591.684 276.357v-8.169c0-2.346-1.268-3.532-3.264-3.532-1.994 0-3.289 1.213-3.289 3.532v8.169h-1.941v-13.266h1.941v1.456c.943-1.078 2.238-1.618 3.721-1.618 1.43 0 2.588.431 3.398 1.24.943.917 1.375 2.157 1.375 3.694v8.493H591.684zM612.58 276.357v-1.267c-1.08 1.079-2.049 1.429-3.83 1.429-1.832 0-2.91-.35-3.746-1.213-.648-.647-.998-1.645-.998-2.696 0-2.318 1.617-3.828 4.584-3.828h3.99v-1.268c0-1.941-.971-2.912-3.398-2.912-1.697 0-2.56.405-3.342 1.51l-1.322-1.213c1.185-1.537 2.535-1.968 4.691-1.968 3.559 0 5.313 1.537 5.313 4.422v9.005H612.58zM612.58 270.237h-3.721c-1.996 0-2.967.809-2.967 2.346 0 1.537.943 2.265 3.047 2.265 1.133 0 2.131-.081 2.967-.89.457-.432.674-1.186.674-2.292V270.237zM626.654 265.626c-.729-.728-1.268-.971-2.291-.971-1.941 0-3.182 1.537-3.182 3.559v8.143h-1.941v-13.266h1.941v1.618c.727-1.105 2.184-1.78 3.721-1.78 1.266 0 2.236.296 3.182 1.24L626.654 265.626zM630.889 270.237c0 2.912 1.375 4.584 3.91 4.584 1.535 0 2.426-.458 3.477-1.51l1.322 1.16c-1.348 1.348-2.588 2.049-4.854 2.049-3.506 0-5.797-2.103-5.797-6.794 0-4.287 2.076-6.794 5.445-6.794 3.426 0 5.447 2.48 5.447 6.417v.89H630.889zM637.494 266.57c-.512-1.213-1.699-1.995-3.102-1.995-1.4 0-2.588.782-3.1 1.995-.297.728-.352 1.132-.404 2.211h7.01C637.844 267.703 637.791 267.298 637.494 266.57zM651.488 276.357v-1.267c-1.078 1.079-2.049 1.429-3.828 1.429-1.834 0-2.912-.35-3.748-1.213-.647-.647-.998-1.645-.998-2.696 0-2.318 1.619-3.828 4.584-3.828h3.99v-1.268c0-1.941-.971-2.912-3.396-2.912-1.699 0-2.563.405-3.344 1.51l-1.32-1.213c1.186-1.537 2.533-1.968 4.691-1.968 3.559 0 5.311 1.537 5.311 4.422v9.005H651.488zM651.488 270.237h-3.721c-1.994 0-2.965.809-2.965 2.346 0 1.537.943 2.265 3.047 2.265 1.131 0 2.129-.081 2.965-.89.459-.432.674-1.186.674-2.292V270.237zM658.096 276.357v-2.534h2.533v2.534H658.096z"/><g><ellipse cx="353.116" cy="571.349" opacity=".25" rx="59.375" ry="6.5"/><path d="M361.996,508.215l14.102-26.245c-0.191,0.062-0.374,0.121-0.548,0.177c-3.004,0.966-5.31,1.585-7.439,1.672
				c-0.837,0.14-1.674,0.21-2.489,0.21c-0.394,0-0.79-0.017-1.194-0.05l-17.004-1.461l-10.907,20.299
				c-2.136,3.975-1.963,8.792,0.451,12.604l31.667,50c2.379,3.757,6.431,5.813,10.572,5.813c2.287,0,4.602-0.628,6.676-1.941
				c5.832-3.694,7.566-11.417,3.872-17.249L361.996,508.215z"/><path d="M367.876,481.525c1.962-0.053,4.244-0.692,6.969-1.568c8.725-2.807,18.658-7.888,16.499-24.146
				c-4.621-21.882-10.189-33.866-23.063-50.822c-9.435-12.278-22.642-12.731-30.058-7.997c-5.553,3.547-6.814,11.445-4.622,18.765
				l4.846-7.795c1.893-3.046,5.165-4.863,8.755-4.863c1.918,0,3.796,0.537,5.43,1.554c2.337,1.452,3.968,3.727,4.593,6.407
				c0.625,2.68,0.17,5.441-1.283,7.777l-11.069,17.805c3.292,5.962,6.593,12.42,9.199,19.046l-35.808-3.077
				c-6.726-0.582-12.677,4.272-13.48,10.962l-6.334,52.667c-0.825,6.854,4.063,13.078,10.918,13.902
				c0.506,0.061,1.01,0.091,1.508,0.091c6.237,0.001,11.632-4.661,12.395-11.009l4.892-40.671l36.462,3.133
				C365.738,481.78,366.826,481.711,367.876,481.525z"/><path d="M353.988,417.623c2.333-3.752,1.182-8.686-2.57-11.018c-3.752-2.333-8.686-1.182-11.018,2.57l-10.425,16.769
				c-7.738-6.025-19.14-13.119-28.152-11.272c-4.642,0.949-8.295,3.972-10.288,8.511c-1.776,4.046,0.064,8.765,4.109,10.541
				c3.778,1.656,8.146,0.164,10.152-3.338c3.896,0.58,13.362,6.732,20.59,13.513c1.492,1.4,3.453,2.166,5.474,2.166
				c0.346,0,0.693-0.022,1.041-0.068c2.377-0.312,4.487-1.673,5.753-3.708L353.988,417.623z"/><circle cx="314.717" cy="379.646" r="22.5" transform="rotate(-63.345 314.712 379.652)"/><g><path fill="#fff" d="M311.042,393.657l-2.362-1.85c6.323-8.08,20.118-9.511,20.702-9.568l0.292,2.986
				C329.543,385.238,316.568,386.595,311.042,393.657z"/></g><g><rect width="55.138" height="2.375" x="280.87" y="372.364" fill="#fff" transform="rotate(-8.389 308.335 373.51)"/><circle cx="329.367" cy="371.921" r="7.75" fill="#fff" transform="rotate(-73.711 329.356 371.905)"/><path d="M323.555,372.777c0.473,3.211,3.459,5.429,6.669,4.956c3.21-0.473,5.429-3.458,4.956-6.669
							c-0.473-3.209-3.459-5.429-6.669-4.956C325.302,366.581,323.082,369.567,323.555,372.777z"/><g><circle cx="310.818" cy="374.654" r="7.75" fill="#fff" transform="rotate(-79.437 310.82 374.672)"/><path d="M305.005,375.51c0.473,3.21,3.459,5.429,6.669,4.956c3.21-0.473,5.429-3.458,4.956-6.669
							c-0.473-3.21-3.459-5.429-6.669-4.956C306.752,369.314,304.533,372.301,305.005,375.51z"/></g></g></g><g><ellipse cx="693.161" cy="571.349" opacity=".25" rx="60" ry="6.5"/><path d="M754.84,363.794l22.239-22.975l-4.225-4.09l-22.239,22.974l-1.293-1.251l-30.188,28.641
				c-2.536-0.979-4.702-1.244-6.165-1.281c-0.163-0.01-0.325-0.025-0.49-0.025h-38.635c-0.175,0-0.346,0.015-0.518,0.026
				c-2.832,0.078-8.278,1.007-13.85,6.243c-12.867,12.09-18.155,39.571-15.718,81.679l-2.193,2.376c0,0,8.692,9.252,20.135,15.952
				l-9.539,65.451c-0.985,6.759,3.696,13.033,10.451,14.017c6.757,0.985,13.034-3.692,14.019-10.451l13.328-91.443h6.407
				l13.327,91.443c0.985,6.759,7.262,11.435,14.019,10.451c6.755-0.984,11.436-7.258,10.451-14.017l-13.956-95.753v-22.13
				c2.579,1.425,5.025,2.71,6.615,3.391c0.456,8.347,0.446,18.265-0.242,30.026c-0.258,4.41,3.108,8.195,7.52,8.453
				c0.159,0.01,0.316,0.014,0.475,0.014c4.204,0,7.73-3.281,7.979-7.533c2.292-39.169-2.088-65.706-13.013-79.021l26.591-29.917
				L754.84,363.794z M666.115,409.929v39.581l-6.919,7.496C659.014,432.057,662.39,417.708,666.115,409.929z M720.207,424.961
				v-15.032c1.96,4.091,3.823,9.997,5.123,18.31C723.654,427.214,721.897,426.101,720.207,424.961z"/><path fill="#fff" d="M667.486,465.3c-0.48,0-0.965-0.138-1.393-0.426c-1.146-0.771-1.449-2.324-0.679-3.47
				l51.018-75.854c0.771-1.147,2.324-1.448,3.47-0.679c1.146,0.771,1.449,2.324,0.679,3.47l-51.018,75.855
				C669.08,464.913,668.29,465.3,667.486,465.3z"/><circle cx="693.087" cy="357.801" r="22.5" transform="rotate(-12.973 693.05 357.785)"/><path fill="#fff" d="M700.72,370.414c-11.372-8.819-20.431-5.667-20.81-5.528l-1.047-2.812
							c0.441-0.164,10.931-3.931,23.695,5.969L700.72,370.414z"/><g><path d="M698.084,322.371c-22.639-2.976-32.777,15.491-30.433,20.543c0.601,1.296,2.123,1.981,4.198,2.307
							c1.726,3.4,10.145,6.884,20.59,8.257c10.61,1.395,19.76,0.143,22.136-2.793c3.471,0.842,6.285,0.969,7.598-0.604
							C725.743,345.806,720.723,325.346,698.084,322.371z"/><path fill="#fff" d="M701.048 329.872c0 0-3.474.101-5.4.084-.302-1.34-1.399-2.417-2.84-2.607-1.343-.177-2.598.469-3.28 1.541-1.649-.465-3.342-.972-3.342-.972s1.27 1.345 2.834 2.466c-.166 1.796 1.105 3.416 2.909 3.654 1.491.196 2.869-.623 3.478-1.915C697.894 331.819 701.048 329.872 701.048 329.872zM696.074 337.667c-11.543-1.517-21.343.1-22.587 3.608 3.574-2.115 11.63-2.88 20.777-1.678 12.046 1.583 21.403 5.975 20.899 9.807-.021.16-.083.312-.138.465 1.133-.67 1.826-1.473 1.947-2.396C717.477 343.642 708.119 339.25 696.074 337.667z"/></g></g><g><ellipse cx="553.828" cy="571.349" opacity=".25" rx="60" ry="6.5"/><path d="M615.506,363.794l22.239-22.975l-4.225-4.09l-22.239,22.974l-1.293-1.251L579.8,387.092
				c-2.536-0.979-4.702-1.244-6.165-1.281c-0.163-0.01-0.325-0.025-0.49-0.025h-36.941l-67.752-25.882
				c-0.017-0.007-0.03-0.017-0.047-0.024l-32.541-12.431c-1.662-0.635-3.524,0.198-4.159,1.859c-0.635,1.662,0.198,3.524,1.86,4.159
				l17.945,6.855c-1.893,4.037-2.705,9.204-0.37,10.095l75.642,28.896v50.197l-24.551,26.6c0,0,8.692,9.252,20.135,15.952
				l-9.539,65.451c-0.985,6.759,3.696,13.033,10.451,14.017c6.757,0.985,13.034-3.692,14.019-10.451l13.328-91.443h6.407
				l13.328,91.443c0.985,6.759,7.262,11.435,14.019,10.451c6.755-0.984,11.436-7.258,10.451-14.017l-13.956-95.753v-22.13
				c2.579,1.426,5.025,2.71,6.615,3.392c0.456,8.347,0.446,18.265-0.242,30.025c-0.258,4.41,3.108,8.195,7.52,8.453
				c0.159,0.01,0.316,0.014,0.475,0.014c4.204,0,7.729-3.281,7.978-7.533c2.292-39.169-2.089-65.706-13.013-79.021l26.591-29.916
				L615.506,363.794z M580.874,424.961v-15.033c1.96,4.091,3.823,9.998,5.123,18.311
				C584.321,427.214,582.564,426.101,580.874,424.961z"/><circle cx="555.087" cy="357.801" r="22.5" transform="rotate(-12.797 555.173 357.84)"/><path fill="#fff" d="M562.72,370.414c-11.372-8.819-20.431-5.667-20.81-5.528l-1.047-2.812
							c0.441-0.164,10.931-3.931,23.695,5.969L562.72,370.414z"/><g><path d="M560.084,322.371c-22.639-2.976-32.777,15.491-30.433,20.543c0.601,1.296,2.123,1.981,4.198,2.307
							c1.726,3.4,10.145,6.884,20.59,8.257c10.61,1.395,19.76,0.143,22.136-2.793c3.471,0.842,6.285,0.969,7.598-0.604
							C587.743,345.806,582.723,325.346,560.084,322.371z"/><path fill="#fff" d="M563.048 329.872c0 0-3.474.101-5.4.084-.302-1.34-1.399-2.417-2.84-2.607-1.343-.177-2.598.469-3.28 1.541-1.649-.465-3.342-.972-3.342-.972s1.27 1.345 2.834 2.466c-.166 1.796 1.105 3.416 2.909 3.654 1.491.196 2.869-.623 3.478-1.915C559.894 331.819 563.048 329.872 563.048 329.872zM558.074 337.667c-11.543-1.517-21.343.1-22.587 3.608 3.574-2.115 11.63-2.88 20.777-1.678 12.046 1.583 21.403 5.975 20.899 9.807-.021.16-.083.312-.138.465 1.133-.67 1.826-1.473 1.947-2.396C579.477 343.642 570.119 339.25 558.074 337.667z"/></g><g><path fill="#fff" d="M528.153,465.3c-0.48,0-0.965-0.138-1.393-0.426c-1.146-0.771-1.449-2.323-0.679-3.47
				l51.017-75.854c0.771-1.147,2.323-1.448,3.47-0.679c1.146,0.771,1.449,2.323,0.679,3.47l-51.017,75.855
				C529.747,464.913,528.957,465.3,528.153,465.3z"/></g></g></svg>